<?xml version="1.0" encoding="UTF-8"?> <svg xmlns="http://www.w3.org/2000/svg" width="100" height="100" viewBox="0 0 100 100" fill="none"><path d="M49.9991 6C74.3195 6 94 25.6805 94 50.0009C94 74.3214 74.3195 94 49.9991 94C25.6786 94 6 74.3214 6 50.0009C6 25.6805 25.6786 6 49.9991 6Z" stroke="#9A9B9C" stroke-width="1.33333" stroke-miterlimit="10"></path><path d="M27.9961 50.0024C27.9961 62.1617 37.8364 72.002 49.9956 72.002C62.1568 72.002 71.997 62.1617 71.997 50.0024C71.997 37.8412 62.1568 28.001 49.9956 28.001C37.8364 28.001 27.9961 37.8412 27.9961 50.0024Z" stroke="#9A9B9C" stroke-width="1.33333" stroke-miterlimit="10"></path><path d="M50.1641 50.6348V6.95101" stroke="#9A9B9C" stroke-width="1.33333" stroke-miterlimit="10"></path><path d="M49.9956 50L8.14844 36.403" stroke="#9A9B9C" stroke-width="1.33333" stroke-miterlimit="10"></path><path d="M49.9955 50.0011L24.1328 85.5977" stroke="#9A9B9C" stroke-width="1.33333" stroke-miterlimit="10"></path><path d="M49.9961 50.0011L75.8588 85.5977" stroke="#9A9B9C" stroke-width="1.33333" stroke-miterlimit="10"></path><path d="M49.9961 50L91.8432 36.403" stroke="#9A9B9C" stroke-width="1.33333" stroke-miterlimit="10"></path></svg> 